<mxfile host="65bd71144e">
    <diagram id="n-y3Garob8GmoL7d-FYO" name="Page-1">
        <mxGraphModel dx="727" dy="580" grid="1" gridSize="10" guides="1" tooltips="1" connect="1" arrows="1" fold="1" page="1" pageScale="1" pageWidth="850" pageHeight="1100" math="0" shadow="0">
            <root>
                <mxCell id="0"/>
                <mxCell id="1" parent="0"/>
                <mxCell id="2" value="Vehicle Application 1" style="rounded=0;whiteSpace=wrap;html=1;fillColor=#3A7FC0;strokeColor=#82b366;" parent="1" vertex="1">
                    <mxGeometry x="380" y="113" width="120" height="60" as="geometry"/>
                </mxCell>
                <mxCell id="12" style="edgeStyle=none;html=1;startArrow=classic;startFill=1;" parent="1" source="3" target="4" edge="1">
                    <mxGeometry relative="1" as="geometry"/>
                </mxCell>
                <mxCell id="3" value="Vehicle Abstraction Layer" style="rounded=0;whiteSpace=wrap;html=1;fillColor=#2EA992;strokeColor=#2EA992;" parent="1" vertex="1">
                    <mxGeometry x="460" y="213" width="120" height="60" as="geometry"/>
                </mxCell>
                <mxCell id="13" style="edgeStyle=none;html=1;startArrow=classic;startFill=1;exitX=0.5;exitY=1;exitDx=0;exitDy=0;entryX=0.5;entryY=0;entryDx=0;entryDy=0;" parent="1" source="4" target="5" edge="1">
                    <mxGeometry relative="1" as="geometry"/>
                </mxCell>
                <mxCell id="4" value="Automotive Bus (CAN, Some/IP, etc.)" style="rounded=0;whiteSpace=wrap;html=1;" parent="1" vertex="1">
                    <mxGeometry x="440" y="303" width="160" height="60" as="geometry"/>
                </mxCell>
                <mxCell id="15" style="edgeStyle=none;html=1;startArrow=classic;startFill=1;exitX=0.5;exitY=1;exitDx=0;exitDy=0;entryX=0.5;entryY=0;entryDx=0;entryDy=0;" parent="1" source="4" target="14" edge="1">
                    <mxGeometry relative="1" as="geometry"/>
                </mxCell>
                <mxCell id="5" value="Actuator" style="rounded=0;whiteSpace=wrap;html=1;" parent="1" vertex="1">
                    <mxGeometry x="380" y="403" width="120" height="60" as="geometry"/>
                </mxCell>
                <mxCell id="11" value="" style="edgeStyle=none;html=1;fillColor=#d5e8d4;strokeColor=#2EA992;startArrow=classic;startFill=1;exitX=0.5;exitY=1;exitDx=0;exitDy=0;entryX=0.5;entryY=0;entryDx=0;entryDy=0;" parent="1" source="2" target="3" edge="1">
                    <mxGeometry relative="1" as="geometry">
                        <mxPoint x="370" y="243" as="sourcePoint"/>
                    </mxGeometry>
                </mxCell>
                <mxCell id="9" value="" style="edgeStyle=none;html=1;startArrow=classic;startFill=1;" parent="1" source="8" target="2" edge="1">
                    <mxGeometry relative="1" as="geometry"/>
                </mxCell>
                <mxCell id="8" value="potential Off-Board&amp;nbsp;&lt;br&gt;Backend" style="ellipse;shape=cloud;whiteSpace=wrap;html=1;" parent="1" vertex="1">
                    <mxGeometry x="375" y="10" width="130" height="80" as="geometry"/>
                </mxCell>
                <mxCell id="14" value="Sensor" style="rounded=0;whiteSpace=wrap;html=1;" parent="1" vertex="1">
                    <mxGeometry x="540" y="403" width="120" height="60" as="geometry"/>
                </mxCell>
                <mxCell id="16" value="Vehicle Application 2" style="rounded=0;whiteSpace=wrap;html=1;fillColor=#3A7FC0;strokeColor=#82b366;" vertex="1" parent="1">
                    <mxGeometry x="540" y="113" width="120" height="60" as="geometry"/>
                </mxCell>
                <mxCell id="17" value="" style="edgeStyle=none;html=1;fillColor=#d5e8d4;strokeColor=#2EA992;startArrow=classic;startFill=1;exitX=0.5;exitY=1;exitDx=0;exitDy=0;entryX=0.5;entryY=0;entryDx=0;entryDy=0;" edge="1" parent="1" source="16" target="3">
                    <mxGeometry relative="1" as="geometry">
                        <mxPoint x="450" y="183" as="sourcePoint"/>
                        <mxPoint x="495.7142857142858" y="223" as="targetPoint"/>
                    </mxGeometry>
                </mxCell>
            </root>
        </mxGraphModel>
    </diagram>
</mxfile>